<svg xmlns="http://www.w3.org/2000/svg" xml:space="preserve" viewBox="0 0 512 512"><g transform="translate(-522)"><rect width="490" height="490" x="533" y="11" rx="19.625" ry="19.625" style="fill:#000;fill-opacity:1;stroke:#ff9ae0;stroke-width:10;stroke-linecap:round;stroke-linejoin:round;stroke-dasharray:none;stroke-opacity:.6;paint-order:stroke fill markers"/><path d="M749.02 451.315c.11-2.317.328-6.952.519-11.07.19-4.116.354-7.715.272-10.414-.081-2.7-.409-4.499-1.036-6.162-.627-1.663-1.554-3.19-2.808-4.826-1.254-1.636-2.836-3.38-4.417-5.044-1.581-1.663-3.163-3.244-4.799-4.717-1.635-1.472-3.326-2.835-5.453-4.144-2.126-1.309-4.69-2.563-8.588-3.899-3.899-1.336-9.134-2.754-14.805-4.062-5.671-1.31-11.778-2.509-17.75-3.9-5.97-1.39-11.805-2.971-15.895-4.525-4.09-1.554-6.434-3.081-9.024-4.908-2.59-1.827-5.426-3.953-9.025-7.607-3.599-3.653-7.961-8.834-11.479-13.25-3.517-4.418-6.189-8.071-8.67-12.352-2.48-4.28-4.771-9.188-6.243-12.841-1.473-3.654-2.127-6.053-2.427-7.798-.3-1.745-.245-2.836-.149-3.363.096-.528.234-.492.388-.452.153.04.321.085.641.298.32.214.791.595 1.767 1.409.976.813 2.458 2.058 3.568 3.057 1.111.999 1.852 1.75 2.828 2.693.976.943 2.188 2.076 3.41 3.338 1.224 1.262 2.458 2.654 3.604 3.912a230.164 230.164 0 0 0 3.597 3.847 204.91 204.91 0 0 0 5.395 5.49c2.278 2.23 5.112 4.89 7.575 7.01 2.464 2.118 4.558 3.695 6.85 5.432 2.29 1.737 4.779 3.634 7.095 5.198a56.903 56.903 0 0 0 6.64 3.88c2.18 1.085 4.397 2.02 6.417 2.686 2.02.665 3.843 1.06 4.964 1.306 1.121.246 1.54.345 1.873.394.332.05.579.05.69-.037.11-.086.086-.259 0-.493a3 3 0 0 0-.53-.887c-.296-.357-.74-.776-1.799-1.613a103.252 103.252 0 0 0-4.767-3.511 227.525 227.525 0 0 0-6.602-4.398 336.096 336.096 0 0 0-6.197-3.892c-2.044-1.257-4.163-2.538-6.294-4.029-2.131-1.49-4.275-3.19-6.233-4.84-1.959-1.651-3.733-3.253-5.162-4.682-1.429-1.429-2.513-2.685-3.4-3.88a29.96 29.96 0 0 1-2.118-3.301c-.542-.973-.936-1.786-1.134-2.415-.197-.628-.197-1.071-.11-1.293.086-.222.258-.222.468-.074.21.148.455.444.997.936.542.493 1.38 1.183 1.996 1.651.616.468 1.01.714 1.712 1.232.702.517 1.713 1.306 2.797 2.045 1.084.739 2.241 1.429 3.621 2.328 1.38.9 2.981 2.008 4.435 3.03a162.038 162.038 0 0 1 4.04 2.92c1.281.96 2.538 1.946 3.979 2.993 1.441 1.047 3.067 2.156 4.41 3.116a70.19 70.19 0 0 1 3.166 2.39c.763.616 1.232 1.035 1.712 1.244.48.21.973.21 1.22.111.246-.098.246-.295.135-.443-.11-.148-.333-.247-.665-.505-.333-.259-.776-.678-1.035-1.023-.259-.345-.333-.616-.48-.85-.148-.234-.37-.43-1.318-1.318-.949-.887-2.624-2.463-4.89-4.484a487.287 487.287 0 0 0-7.86-6.812c-2.735-2.328-5.346-4.52-7.859-6.762a215.614 215.614 0 0 1-7.132-6.69c-2.205-2.155-4.2-4.175-6.16-6.503-1.958-2.329-3.88-4.965-5.235-7.194-1.355-2.23-2.143-4.053-3.029-8.44-.885-4.388-1.868-11.34-3.083-20.46-1.215-9.122-2.662-20.41-3.675-28.806-1.013-8.394-1.592-13.894-1.94-18.12-.347-4.227-.463-7.18-.463-9.408 0-2.23.116-3.734.434-5.674.319-1.94.84-4.313 1.853-7.526s2.518-7.266 4.718-12.042 5.095-10.276 8.048-15.603c2.952-5.326 5.963-10.478 8.973-15.197 3.01-4.718 6.021-9.002 8.887-12.65 2.866-3.647 5.587-6.658 8.192-9.494 2.605-2.837 5.095-5.5 7.382-8.048 2.287-2.547 4.37-4.979 6.34-7.15 1.968-2.17 3.82-4.081 5.354-5.847 1.535-1.766 2.75-3.387 3.619-4.429.868-1.042 1.39-1.505.955-1.592-.434-.087-1.824.203-3.387.753s-3.3 1.36-5.095 2.258c-1.794.897-3.647 1.881-5.5 3.155-1.852 1.274-3.705 2.837-5.905 4.747-2.2 1.91-4.747 4.169-6.89 6.369-2.141 2.2-3.878 4.342-5.557 6.513-1.679 2.17-3.3 4.37-5.326 7.179a585.125 585.125 0 0 0-6.658 9.407c-2.2 3.185-4.169 6.137-5.876 8.887-1.708 2.75-3.156 5.297-4.748 7.903a157.798 157.798 0 0 1-5.123 7.844c-1.795 2.577-3.648 5.066-4.95 6.6-1.303 1.534-2.056 2.113-2.548 2.23-.492.115-.723-.232-.723-1.448s.231-3.3 1.215-6.63c.985-3.328 2.721-7.902 5.037-12.649 2.316-4.747 5.21-9.668 9.205-15.37 3.995-5.704 9.09-12.188 14.387-18.122 5.298-5.934 10.797-11.318 17.021-16.963 6.224-5.645 13.171-11.55 19.047-16.152 5.877-4.603 10.682-7.903 15.227-10.71a130.037 130.037 0 0 1 13.46-7.295c4.632-2.171 9.61-4.198 13.46-5.645 3.85-1.447 6.571-2.316 8.83-2.866 2.257-.55 4.052-.781 5.702-.868a31.36 31.36 0 0 1 4.168.058c1.013.086 1.534.202 1.708.376.174.174 0 .405-.55.926a31.206 31.206 0 0 1-2.634 2.2 31.169 31.169 0 0 1-4.198 2.663c-1.65.869-3.56 1.68-6.223 2.837a576.285 576.285 0 0 0-9.437 4.198c-3.358 1.534-6.658 3.097-9.552 4.805-2.895 1.708-5.385 3.56-7.324 5.355-1.94 1.795-3.329 3.532-4.313 4.834-.984 1.303-1.563 2.171-1.853 2.78-.29.607-.29.954.03 1.128.318.174.954.174 1.678-.029.724-.203 1.534-.608 2.721-1.129 1.187-.52 2.75-1.158 5.24-2.345 2.49-1.186 5.905-2.923 9.697-4.486 3.792-1.564 7.96-2.953 11.868-4.053 3.908-1.1 7.555-1.91 10.942-2.576a146.824 146.824 0 0 1 9.9-1.621c3.387-.435 7.034-.782 10.392-.927a84.539 84.539 0 0 1 9.09.087c2.663.174 4.92.463 6.223.666s1.65.318 1.621.521c-.029.203-.434.492-1.273.926-.84.435-2.114 1.013-3.59 1.68-1.476.665-3.155 1.418-4.892 1.91-1.737.492-3.532.723-6.224 1.302-2.692.58-6.281 1.506-9.957 2.287-3.677.782-7.44 1.419-10.914 2.142-3.473.724-6.657 1.535-8.944 2.056-2.287.52-3.676.752-5.674 1.331-1.997.58-4.602 1.505-7.729 2.721-3.126 1.216-6.773 2.721-10.218 4.342-3.445 1.621-6.687 3.358-9.466 5.037-2.779 1.679-5.094 3.3-7.844 5.297-2.75 1.998-5.935 4.371-9.032 7.092-3.097 2.721-6.108 5.79-9.581 9.756-3.474 3.965-7.41 8.828-10.682 13.084-3.271 4.255-5.876 7.902-8.308 11.955-2.431 4.053-4.69 8.51-6.513 12.505a117.89 117.89 0 0 0-4.458 11.174c-1.244 3.647-2.344 7.41-3.155 11.347-.81 3.937-1.331 8.047-1.62 11.463-.29 3.416-.348 6.137-.435 8.047-.087 1.91-.203 3.01-.145 3.474.058.463.29.29.58-.116.289-.405.636-1.042 1.128-1.968a70.48 70.48 0 0 0 1.824-3.648 53.452 53.452 0 0 0 2.229-5.644c.781-2.345 1.592-5.24 2.431-8.28.84-3.039 1.708-6.223 2.895-9.697a113.908 113.908 0 0 1 4.313-10.739 91.782 91.782 0 0 1 5.616-10.363c2.258-3.618 5.037-7.613 7.7-11.434 2.663-3.821 5.21-7.468 7.902-10.884 2.692-3.416 5.53-6.6 8.51-9.466 2.982-2.866 6.109-5.413 9.727-8.047a130.013 130.013 0 0 1 12.158-7.874c4.429-2.518 9.176-4.834 14.068-7.092 4.892-2.258 9.929-4.458 14.56-6.252 4.632-1.795 8.858-3.185 13.23-4.487a249.703 249.703 0 0 1 13.257-3.56 235.302 235.302 0 0 1 11.926-2.52c3.33-.607 5.76-.954 8.569-1.128 2.808-.174 5.992-.174 10.276-.029s9.668.434 13.779.81c4.11.377 6.947.84 9.506 1.308 2.558.469 4.838.943 7.866 1.883 3.028.94 6.803 2.346 9.228 3.32 2.425.973 3.5 1.513 6.174 2.98 2.674 1.465 6.947 3.857 10.551 6.058 3.604 2.2 6.538 4.21 10.477 7.08 3.94 2.87 8.882 6.602 13.411 10.461 4.53 3.86 8.643 7.846 12.742 12.183a253.065 253.065 0 0 1 11.29 12.821c3.11 3.796 5.246 6.698 7.718 10.35 2.471 3.651 5.278 8.053 7.495 12.15 2.216 4.1 3.843 7.894 5.47 12.28 1.626 4.385 3.252 9.36 4.64 15.085 1.387 5.725 2.535 12.199 3.205 17.334.67 5.135.861 8.93.877 13.283.016 4.354-.144 9.265-.335 13.252-.191 3.986-.415 7.048-.67 10.7-.255 3.652-.542 7.893-.86 12.055-.32 4.163-.67 8.245-.894 11.817-.223 3.572-.319 6.634-.494 8.946-.176 2.312-.43 3.875-1.292 6.554-.861 2.679-2.328 6.474-4.002 10.429a230.088 230.088 0 0 1-5.534 12.071c-1.977 4.003-4.05 7.894-6.665 12.183a164.737 164.737 0 0 1-9.457 13.826c-3.683 4.848-7.893 9.855-11.816 14.272-3.923 4.417-7.559 8.244-11.083 11.705-3.524 3.46-6.937 6.554-10.812 9.855-3.875 3.3-8.212 6.809-13.028 10.158-4.816 3.349-10.11 6.538-14.719 9.169-4.608 2.631-8.53 4.704-11.545 6.171-3.014 1.467-5.119 2.328-7.861 3.493-2.743 1.164-6.124 2.63-9.728 4.162-3.604 1.53-7.43 3.125-10.524 4.512a144.773 144.773 0 0 0-7.432 3.588c-1.977 1.021-3.572 1.882-4.48 2.408-.91.527-1.133.718-1.228.877-.096.16-.064.287.303.383.366.096 1.068.16 1.977.16s2.025-.064 3.014-.144c.989-.08 1.85-.175 4.48-.525 2.632-.35 7.032-.952 11.137-1.807 4.105-.854 7.913-1.96 11.155-3.038 3.242-1.079 5.918-2.13 8.655-3.256 2.736-1.126 5.535-2.327 8.395-3.72 2.86-1.392 5.78-2.975 8.333-4.43a186.191 186.191 0 0 0 6.969-4.176 383.14 383.14 0 0 0 6.961-4.485c2.45-1.61 5.072-3.358 7.14-4.757 2.068-1.399 3.583-2.45 5.5-3.754a699.065 699.065 0 0 1 6.205-4.163c1.966-1.304 3.576-2.355 5.365-3.42a104.033 104.033 0 0 1 5.562-3.07 77.22 77.22 0 0 1 4.853-2.3c1.392-.595 2.525-1.004 3.406-1.25.88-.246 1.508-.327 1.938-.375.43-.048.662-.062.799-.007.136.054.177.177.136.32-.04.144-.164.308-.416.67-.253.361-.635.92-1.188 1.583-.553.662-1.276 1.426-2.34 2.512a99.592 99.592 0 0 1-4.123 3.992c-1.652 1.502-3.55 3.099-5.85 4.887-2.3 1.788-5.002 3.768-7.535 5.576-2.532 1.81-4.893 3.447-6.934 4.778-2.04 1.331-3.76 2.355-5.686 3.508-1.924 1.154-4.054 2.437-6.49 3.809a223.31 223.31 0 0 1-7.665 4.102c-2.484 1.27-4.71 2.348-7.76 3.815a840.981 840.981 0 0 1-10.197 4.84c-3.27 1.514-5.931 2.688-8.525 3.869-2.594 1.18-5.119 2.368-7.979 3.59-2.86 1.222-6.054 2.478-8.504 3.501-2.45 1.024-4.156 1.816-6.32 2.771-2.164.956-4.785 2.075-7.132 3.167a118.002 118.002 0 0 0-5.911 2.956 61.371 61.371 0 0 0-3.106 1.767c-.716.437-1.249.778-1.563 1.004-.314.225-.41.334-.457.423-.048.089-.048.157.027.191.076.034.226.034.656-.02a49.38 49.38 0 0 0 2.252-.362c1.113-.198 2.628-.485 4.184-.826a99.737 99.737 0 0 0 5.214-1.304 213.967 213.967 0 0 0 7.365-2.177 400.286 400.286 0 0 0 8.497-2.798c2.69-.915 5.037-1.734 8.218-2.867 3.18-1.133 7.194-2.58 11.917-4.457 4.723-1.877 10.156-4.184 14.9-6.272 4.743-2.089 8.797-3.959 12.162-5.501 3.365-1.543 6.04-2.758 9.118-4.157 3.078-1.4 6.56-2.983 9.405-4.266a543.676 543.676 0 0 1 6.71-2.982c1.651-.717 2.743-1.167 3.692-1.516a28.987 28.987 0 0 1 2.28-.737c.525-.143.771-.184.928-.163.157.02.225.102.232.218.007.116-.048.266-.239.491-.191.226-.519.526-.996 1.01-.478.485-1.106 1.154-2.068 2.048a62.874 62.874 0 0 1-3.393 2.914 42.482 42.482 0 0 1-3.317 2.382 117.574 117.574 0 0 1-4.477 2.785 242.658 242.658 0 0 1-5.91 3.392 178.406 178.406 0 0 1-5.857 3.12 314.979 314.979 0 0 1-7.132 3.508c-2.614 1.249-5.426 2.56-8.122 3.829-2.696 1.27-5.276 2.498-7.501 3.487-2.225.99-4.095 1.74-5.74 2.403a334.432 334.432 0 0 0-5.29 2.17 666.773 666.773 0 0 0-7.787 3.338c-2.532 1.105-4.566 2.02-6.034 2.668-1.467.649-2.368 1.031-4.17 1.836-1.802.806-4.505 2.034-6.798 3.16-2.293 1.127-4.177 2.15-5.603 3.004-1.427.853-2.396 1.535-3.044 1.972-.649.437-.976.628-.983.73-.007.103.307.116 1.208.123.9.007 2.389.007 4.06-.007 1.673-.013 3.53-.04 5.447-.164a64.373 64.373 0 0 0 6.082-.689c2.184-.348 4.573-.826 7.023-1.4a110.69 110.69 0 0 0 7.856-2.142c2.894-.901 6.17-2.034 9.432-3.229 3.263-1.194 6.511-2.45 10.129-4.033 3.617-1.584 7.603-3.495 11.726-5.55a725.397 725.397 0 0 0 11.91-6.094c3.528-1.843 6.327-3.33 9.555-5.283a158.771 158.771 0 0 0 10.279-6.811c3.392-2.444 6.518-4.915 10.142-7.904 3.624-2.99 7.747-6.498 11.364-9.542 3.617-3.044 6.73-5.624 9.405-7.774 2.676-2.15 4.914-3.87 6.825-5.248a79.6 79.6 0 0 1 4.744-3.188c1.249-.77 2.164-1.276 2.867-1.679.703-.402 1.194-.703 1.61-.88.417-.178.758-.232.894-.11.137.124.069.424-.068.888a26.28 26.28 0 0 1-.655 1.918c-.314.826-.737 1.85-1.31 2.921-.574 1.072-1.297 2.19-2.369 3.795-1.071 1.604-2.491 3.692-4.143 5.876-1.651 2.185-3.535 4.464-5.856 7.01a153.527 153.527 0 0 1-8.197 8.293c-3.12 2.935-6.6 5.992-10.217 8.982a236.938 236.938 0 0 1-10.9 8.49A181.992 181.992 0 0 1 889 455.318a230.948 230.948 0 0 1-10.811 6.416 267.941 267.941 0 0 1-11.596 6.129c-3.788 1.877-7.351 3.501-11.044 4.996-3.692 1.495-7.514 2.86-10.777 3.979a409.88 409.88 0 0 1-8.743 2.88c-2.778.888-5.63 1.788-8.156 2.56-2.525.771-4.723 1.413-6.71 2.027-1.985.614-3.76 1.201-5.33 1.72-1.57.519-2.935.969-3.795 1.303-.86.335-1.214.553-1.385.772-.17.218-.157.436-.014.607.144.17.417.294.894.355.478.061 1.16.061 2.103.014.941-.048 2.143-.144 4.368-.26 2.225-.116 5.474-.252 8.395-.43 2.921-.177 5.515-.395 8.73-.846 3.214-.45 7.05-1.133 10.633-1.809 3.583-.675 6.914-1.344 9.903-2.115 2.99-.772 5.638-1.645 9.706-3.16 4.068-1.516 9.555-3.673 13.882-5.536 4.328-1.863 7.494-3.433 11.685-5.863 4.191-2.43 9.405-5.72 13.61-8.429 4.204-2.71 7.398-4.839 11.118-7.753 3.72-2.915 7.965-6.614 11.268-9.603 3.304-2.99 5.665-5.27 8.764-8.484 3.099-3.215 6.935-7.365 9.767-10.593 2.832-3.228 4.662-5.535 6.675-8.102 2.014-2.566 4.211-5.391 6.19-8.197 1.98-2.805 3.74-5.59 5.666-8.722a225.174 225.174 0 0 0 6.661-11.515c2.648-4.9 5.856-11.22 8.122-15.91 2.266-4.688 3.59-7.746 5.057-11.315 1.468-3.57 3.079-7.651 4.38-11.278 1.3-3.626 2.292-6.797 3.386-10.642a338.177 338.177 0 0 0 3.324-12.65c1.035-4.285 1.91-8.338 2.536-11.939.627-3.6 1.006-6.749 1.414-10.714.408-3.965.846-8.746 1.166-13.28.321-4.534.525-8.82.613-12.697.088-3.878.059-7.347.073-10.365.015-3.017.073-5.583.044-8.046-.03-2.464-.146-4.826-.365-7.989-.218-3.163-.54-7.128-.802-10.525-.262-3.396-.466-6.224-.7-8.921-.232-2.697-.495-5.263-.918-7.785-.422-2.521-1.005-5-1.997-9.663-.99-4.664-2.39-11.514-3.957-18.13-1.568-6.616-3.303-12.999-5.565-19.785-2.262-6.785-5.05-13.974-7.157-18.931-2.107-4.958-3.532-7.685-5.144-10.814-1.61-3.13-3.408-6.662-5.236-10.008a188.425 188.425 0 0 0-5.763-9.823c-2.076-3.315-4.37-6.785-7.344-10.627-2.974-3.843-6.63-8.057-10.814-11.96-4.183-3.905-8.892-7.499-14.47-11-5.577-3.502-12.022-6.91-18.064-9.296-6.042-2.386-11.681-3.749-16.639-4.802-4.957-1.054-9.233-1.798-12.549-2.231-3.315-.434-5.67-.558-7.22-.59-1.548-.03-2.292.032-2.444.196-.151.163.289.43 1.143 1.038.855.608 2.123 1.56 3.854 2.762a114.545 114.545 0 0 0 6.463 4.176c2.537 1.52 5.418 3.106 8.365 4.784 2.947 1.679 5.96 3.45 9.105 5.419 3.146 1.969 6.423 4.136 10.678 7.52 4.256 3.382 9.489 7.981 13.321 11.642 3.833 3.66 6.265 6.383 8.934 9.647a177.94 177.94 0 0 1 8.246 10.916c2.67 3.846 5.101 7.73 6.82 10.77 1.718 3.04 2.722 5.234 3.462 7.335.74 2.101 1.216 4.11 1.555 5.634.34 1.525.542 2.565.758 3.786.216 1.221.446 2.624.624 4.039.179 1.415.306 2.842.319 4.04a21.135 21.135 0 0 1-.179 2.894c-.089.727-.165 1.211-.407 1.275-.243.064-.65-.293-1.48-1.134a39.334 39.334 0 0 1-3.441-3.978c-1.364-1.81-2.843-4.105-4.602-6.884-1.76-2.779-3.799-6.042-6.145-9.65-2.345-3.607-4.997-7.56-7.444-11.014-2.448-3.454-4.691-6.412-7.623-9.726-2.933-3.315-6.553-6.986-9.982-10.428-3.43-3.442-6.667-6.654-9.625-9.446-2.957-2.792-5.634-5.163-8.273-7.483-2.639-2.32-5.24-4.59-7.253-6.285-2.015-1.695-3.442-2.817-5.61-4.296-2.167-1.479-5.073-3.314-9.407-5.813-4.335-2.498-10.097-5.66-15.4-8.26a181.25 181.25 0 0 0-14.596-6.362 245.08 245.08 0 0 0-12.276-4.36 469.366 469.366 0 0 0-10.084-3.16 378.43 378.43 0 0 0-6.272-1.862c-1.313-.37-1.797-.472-2.715-.574a57.487 57.487 0 0 0-3.9-.267c-1.632-.064-3.545-.09-5.138-.166-1.594-.077-2.868-.204-4.476-.373-1.609-.17-3.55-.38-5.343-.791-1.793-.411-3.436-1.023-4.583-1.596-1.147-.574-1.797-1.11-2.199-1.75-.401-.64-.554-1.385-.583-2.16a9.849 9.849 0 0 1 .182-2.16c.115-.583.248-.946.44-1.232.19-.287.44-.497.525-.708.086-.21.01-.42-.296-.66-.306-.238-.841-.506-1.558-.984-.717-.478-1.615-1.166-2.514-1.911a51.154 51.154 0 0 1-2.37-2.093c-.573-.545-.822-.832-.956-1.014-.134-.181-.153-.258-.067-.449.086-.19.278-.497.679-.831.401-.335 1.013-.698 1.625-1.08.612-.383 1.223-.784 2.15-1.233.927-.45 2.17-.946 3.613-1.415a41.251 41.251 0 0 1 4.865-1.252c1.778-.344 3.69-.592 6.232-.917 2.542-.325 5.715-.727 8.86-1.052 3.144-.325 6.26-.573 9.022-.678 2.762-.105 5.17-.067 7.14-.077 1.969-.01 3.498-.067 4.368-.143.87-.077 1.08-.172 1.27-.411.192-.24.364-.621.44-1.061.077-.44.058-.937-.238-1.3-.297-.363-.87-.592-1.587-.755-.717-.162-1.577-.258-3.555-.468a659.15 659.15 0 0 0-8.564-.86c-3.489-.325-7.37-.65-11.135-.994-3.766-.345-7.417-.708-10.513-.985-3.097-.277-5.64-.468-8.048-.573-2.409-.106-4.683-.125-6.9-.02a49.344 49.344 0 0 0-6.672.756c-2.294.42-4.722 1.032-7.178 1.643-2.456.612-4.941 1.224-8.382 2.247a214.284 214.284 0 0 0-12.167 4.042 235.996 235.996 0 0 0-12.454 5 212.642 212.642 0 0 0-11.45 5.352c-4.129 2.074-8.927 4.616-13.754 7.197-4.826 2.58-9.682 5.199-13.41 7.34-3.727 2.14-6.326 3.804-9.165 5.62a5682.341 5682.341 0 0 0-8.803 5.639c-2.886 1.854-5.581 3.594-7.942 5.2a105.304 105.304 0 0 0-6.633 4.864 127.313 127.313 0 0 0-7.016 6.022 99.978 99.978 0 0 0-6.422 6.49c-1.979 2.198-3.795 4.434-6.375 7.674-2.581 3.24-5.926 7.484-8.727 11.22-2.8 3.738-5.056 6.968-7.493 10.534-2.437 3.565-5.056 7.464-7.254 10.914-2.198 3.45-3.976 6.452-5.84 9.444-1.864 2.991-3.813 5.973-6.06 9.423-2.246 3.45-4.788 7.37-6.938 10.705-2.151 3.336-3.91 6.088-5.448 8.315-1.54 2.227-2.858 3.929-4.024 5.286-1.166 1.357-2.18 2.37-2.848 3.049-.67.678-.994 1.022-1.252 1.185-.258.162-.45.143-.564-.191-.115-.335-.153-.985-.144-2.16a46.39 46.39 0 0 1 .268-4.665c.2-1.787.545-3.66.956-5.4.41-1.74.889-3.345 1.347-4.826.46-1.482.899-2.839 1.463-4.225.564-1.386 1.252-2.8 2.265-4.779 1.013-1.978 2.351-4.52 3.498-6.738 1.147-2.217 2.103-4.11 2.867-5.6.765-1.492 1.338-2.581 1.788-3.614.449-1.032.774-2.007 1.099-2.943.325-.937.65-1.835.86-2.466.21-.631.306-.994.23-1.214-.077-.22-.326-.296-.593-.22-.268.077-.555.306-1.004.746-.45.44-1.06 1.09-1.988 2.016-.927.927-2.17 2.132-3.594 3.632a79.573 79.573 0 0 0-4.473 5.114c-1.443 1.816-2.724 3.65-4.08 5.801-1.358 2.15-2.792 4.617-4.12 6.996-1.329 2.38-2.552 4.674-3.709 7.188-1.156 2.514-2.246 5.247-3.144 7.58a150.23 150.23 0 0 0-2.466 6.833 178.368 178.368 0 0 0-2.724 8.87c-.85 3.087-1.539 6.05-2.179 8.812-.64 2.762-1.233 5.323-1.73 7.426-.497 2.103-.898 3.747-1.434 6.624-.535 2.877-1.204 6.986-1.7 10.217-.498 3.23-.823 5.582-1.014 8.134-.191 2.551-.249 5.304-.344 7.932-.096 2.629-.23 5.133-.316 7.169a116.626 116.626 0 0 0-.105 6.47c.02 2.868.096 7.035.144 10.523.048 3.489.067 6.299.172 8.268.105 1.969.296 3.097.44 4.138.143 1.042.238 1.998.41 3.107.172 1.108.421 2.37.908 4.291.488 1.921 1.214 4.502 2.046 6.91.831 2.409 1.768 4.645 3.259 7.828 1.491 3.183 3.536 7.312 5.085 10.447 1.548 3.135 2.6 5.276 3.546 7.168.946 1.892 1.787 3.536 2.513 5.238a44.013 44.013 0 0 1 1.778 4.989c.44 1.529.707 2.829.841 3.68.134.85.134 1.252.086 1.52-.048.267-.143.4-.42.582-.278.182-.736.411-1.061.564-.325.153-.516.23-.688.163-.173-.067-.325-.278-.66-.717-.335-.44-.85-1.109-1.778-2.39-.927-1.28-2.265-3.173-3.546-4.98a472.182 472.182 0 0 0-3.536-4.94c-1.032-1.415-1.873-2.524-2.743-3.719a84.767 84.767 0 0 1-2.456-3.536c-.689-1.06-1.166-1.902-1.558-2.58-.392-.68-.698-1.195-.937-1.482-.239-.287-.411-.344-.545-.325-.134.02-.23.115-.277.287-.048.172-.048.42 0 .755.048.334.143.755.315 1.596.173.841.421 2.103.727 3.498a77.944 77.944 0 0 0 1.156 4.645c.488 1.72 1.1 3.632 1.778 5.649a228.573 228.573 0 0 0 2.026 5.773 86.82 86.82 0 0 0 1.386 3.555c.325.774.516 1.176.994 2.198.478 1.023 1.243 2.667 2.15 4.588.909 1.921 1.96 4.12 3.02 6.213a215.763 215.763 0 0 0 3.098 5.849 457.597 457.597 0 0 0 2.905 5.238c1.08 1.92 2.38 4.215 3.842 6.747 1.463 2.533 3.088 5.305 4.655 7.733 1.568 2.427 3.078 4.51 4.406 6.47 1.329 1.96 2.476 3.795 3.88 5.869 1.406 2.074 3.069 4.387 4.932 6.9a405.812 405.812 0 0 0 6.146 8.067c2.217 2.839 4.588 5.802 7.15 8.784 2.56 2.982 5.313 5.983 7.397 8.324 2.083 2.342 3.498 4.024 5.38 6.031 1.884 2.008 4.235 4.34 6.634 6.786 2.399 2.447 4.846 5.009 7.426 7.408 2.581 2.399 5.295 4.635 8.44 7.216 3.144 2.58 6.719 5.505 9.73 7.77 3.01 2.265 5.457 3.871 8.248 5.64 2.79 1.767 5.926 3.698 9.233 5.323 3.307 1.625 6.786 2.944 10.16 3.995 3.374 1.051 6.642 1.835 10.293 2.39 3.651.554 7.685.879 11.517.965a90.964 90.964 0 0 0 10.552-.363 64.987 64.987 0 0 0 7.971-1.253c2.342-.516 4.483-1.108 6.461-1.959a24.438 24.438 0 0 0 5.257-3.097c1.462-1.137 2.571-2.303 3.345-3.287.774-.985 1.214-1.788 1.475-2.377.261-.589.344-.964.472-1.496.128-.531.303-1.219.39-1.562.087-.344.087-.344.196-2.662z" style="fill:#eb9ad2;fill-opacity:1;stroke:#60535c;stroke-width:1.6276;stroke-linecap:round;stroke-linejoin:round;stroke-dasharray:none;stroke-opacity:.6;paint-order:stroke fill markers" transform="matrix(.92138 0 0 .92183 57.654 .235)"/><text xml:space="preserve" x="582.541" y="480.53" style="font-style:normal;font-variant:normal;font-weight:400;font-stretch:normal;font-size:65.7917px;font-family:Herculanum;-inkscape-font-specification:&quot;Herculanum, Normal&quot;;font-variant-ligatures:normal;font-variant-caps:normal;font-variant-numeric:normal;font-variant-east-asian:normal;letter-spacing:4.18051px;fill:#eb9ad2;fill-opacity:1;stroke:#60535c;stroke-width:2;stroke-linecap:round;stroke-linejoin:round;stroke-dasharray:none;stroke-opacity:.6;paint-order:stroke fill markers" transform="scale(.9934 1.00665)"><tspan x="582.541" y="480.53" style="stroke-width:2">TRAILS</tspan></text></g></svg>
