<?xml version="1.0" standalone="no"?>
<!DOCTYPE svg PUBLIC "-//W3C//DTD SVG 20010904//EN"
 "http://www.w3.org/TR/2001/REC-SVG-20010904/DTD/svg10.dtd">
<svg version="1.0" xmlns="http://www.w3.org/2000/svg"
 width="700.000000pt" height="700.000000pt" viewBox="0 0 700.000000 700.000000"
 preserveAspectRatio="xMidYMid meet">
<g transform="translate(0.000000,700.000000) scale(0.100000,-0.100000)"
fill="#000000" stroke="none">
<path d="M3457 6104 c-1 -2 -25 -6 -52 -9 -65 -9 -257 -64 -382 -110 -230 -84
-748 -364 -928 -501 -101 -76 -198 -173 -269 -270 -17 -21 -33 -41 -37 -44
-21 -16 -167 -222 -322 -454 -178 -267 -239 -347 -250 -329 -7 10 16 119 35
168 6 17 39 82 72 145 119 225 114 270 -16 138 -145 -147 -252 -360 -322 -638
-32 -127 -32 -127 -61 -285 -18 -95 -26 -495 -13 -595 17 -125 23 -140 150
-396 57 -114 89 -189 86 -205 -3 -20 -10 -14 -58 51 -30 41 -62 83 -72 94 -9
10 -29 38 -44 62 -28 44 -49 55 -57 32 -5 -17 26 -138 58 -221 56 -150 190
-392 324 -584 299 -428 736 -836 1031 -962 230 -98 564 -99 710 -2 79 52 90
88 93 308 2 157 -4 174 -109 277 -80 79 -172 132 -269 155 -64 16 -262 60
-295 66 -75 13 -223 56 -261 75 -103 53 -191 131 -307 273 -93 113 -175 260
-198 351 l-7 30 29 -21 c16 -12 83 -74 149 -140 176 -173 261 -243 393 -319
93 -54 212 -88 226 -65 13 20 -49 65 -274 203 -102 63 -220 164 -220 189 0 12
6 11 22 -3 7 -7 51 -38 98 -70 47 -31 118 -79 159 -108 65 -46 101 -57 101
-32 0 12 -88 94 -185 172 -253 206 -345 314 -359 426 -2 21 -10 71 -16 109 -6
39 -13 81 -15 95 -4 26 -8 53 -25 190 -6 47 -13 96 -15 110 -19 128 -32 302
-28 363 2 31 17 94 33 138 49 135 193 390 300 534 46 62 210 244 286 319 47
46 144 159 144 167 0 17 -49 9 -112 -19 -69 -32 -190 -123 -253 -193 -63 -69
-183 -230 -288 -389 -53 -80 -110 -161 -126 -180 -27 -32 -30 -33 -26 -11 19
106 134 318 237 437 123 141 117 135 249 260 139 131 381 311 519 386 48 26
234 108 254 112 6 2 37 11 69 20 55 17 137 29 137 20 0 -9 -81 -53 -152 -82
-130 -54 -201 -89 -248 -123 -105 -75 -152 -147 -103 -156 6 -2 63 20 125 48
115 51 267 101 348 114 25 3 59 9 75 12 17 3 41 7 55 10 45 7 270 11 275 3 8
-14 -102 -42 -355 -90 -207 -40 -327 -78 -470 -150 -242 -121 -500 -379 -644
-643 -97 -177 -138 -324 -150 -535 -4 -54 -2 -63 12 -60 26 5 68 93 107 220
19 63 49 148 66 189 27 65 128 231 172 285 9 10 36 46 61 80 203 274 604 482
1136 590 136 27 409 22 562 -10 249 -54 567 -253 813 -508 160 -166 214 -235
294 -377 37 -66 113 -268 125 -331 2 -14 9 -53 16 -88 6 -35 13 -78 16 -95 5
-37 5 -271 -1 -337 -3 -47 -11 -154 -20 -280 -11 -161 -17 -196 -47 -274 -94
-245 -241 -464 -459 -687 -161 -163 -282 -263 -419 -345 -36 -22 -74 -45 -85
-52 -47 -28 -229 -114 -335 -157 -224 -91 -330 -142 -330 -160 0 -13 12 -18
40 -17 42 0 165 17 235 31 193 40 382 127 660 305 174 112 303 185 355 201 42
13 -72 -86 -200 -173 -106 -73 -264 -165 -350 -204 -19 -9 -66 -31 -105 -48
-97 -45 -211 -94 -335 -145 -249 -102 -335 -144 -335 -165 0 -18 11 -18 95 -2
119 24 490 147 635 212 22 10 101 43 175 75 139 59 154 65 254 110 32 14 61
24 63 21 10 -10 -142 -100 -290 -171 -84 -41 -253 -115 -377 -165 -300 -122
-428 -188 -400 -205 19 -12 181 -2 273 17 106 21 298 85 406 135 291 134 444
225 636 380 219 177 339 263 351 251 2 -2 -4 -15 -14 -30 -9 -14 -30 -45 -46
-69 -77 -116 -367 -364 -557 -477 -245 -145 -367 -197 -714 -302 -208 -62
-217 -66 -213 -88 3 -15 14 -17 78 -14 139 5 215 13 365 38 173 29 417 125
610 239 193 115 286 187 461 360 198 195 318 360 457 626 134 256 239 566 263
780 3 30 7 65 10 79 29 176 22 668 -12 870 -10 60 -13 71 -49 225 -44 190 -37
162 -83 301 -90 270 -227 529 -375 709 -173 210 -419 355 -702 413 -130 27
-151 30 -205 32 -69 3 -80 1 -80 -13 0 -12 117 -90 205 -137 22 -11 47 -25 55
-30 8 -5 44 -25 80 -46 275 -158 578 -501 625 -708 19 -78 25 -146 15 -146
-11 0 -34 30 -111 145 -132 197 -206 289 -333 412 -138 134 -303 276 -383 329
-250 166 -703 335 -932 348 -168 9 -208 27 -197 88 5 30 2 36 -34 61 -22 16
-40 32 -40 36 0 21 119 55 230 66 30 3 64 7 75 10 11 2 67 5 125 5 126 2 147
6 153 30 9 35 -13 42 -168 56 -38 3 -86 7 -105 9 -19 2 -69 7 -110 10 -78 8
-258 14 -263 9z"/>
</g>
</svg>
